<svg width="30" height="30" viewBox="0 0 30 30" fill="none" xmlns="http://www.w3.org/2000/svg">
<g clip-path="url(#clip0_7623_9720)">
<circle cx="15" cy="15" r="15" fill="#FFDCCC"/>
<circle cx="15" cy="15" r="15" fill="url(#paint0_radial_7623_9720)"/>
<mask id="mask0_7623_9720" style="mask-type:alpha" maskUnits="userSpaceOnUse" x="0" y="0" width="30" height="30">
<circle cx="15" cy="15" r="15" fill="#C4C4C4"/>
</mask>
<g mask="url(#mask0_7623_9720)">
<path d="M22.227 24.0547L18.2979 22.668H11.7024L7.77331 24.0547C6.86073 24.3768 6.25049 25.2394 6.25049 26.2071V28.7768C6.25049 29.4071 6.76146 29.9181 7.39174 29.9181H22.6086C23.2389 29.9181 23.7499 29.4071 23.7499 28.7768V26.2071C23.7498 25.2393 23.1396 24.3768 22.227 24.0547Z" fill="url(#paint1_linear_7623_9720)"/>
<path d="M16.9023 22.6903H13.0981V29.9182H16.9023V22.6903Z" fill="url(#paint2_linear_7623_9720)"/>
<path d="M13.0981 24.3029C13.6193 24.7211 14.28 24.9726 15.0002 24.9726C15.7204 24.9726 16.3811 24.721 16.9023 24.3029V22.6901H13.0981V24.3029Z" fill="url(#paint3_linear_7623_9720)"/>
<path d="M21.8427 18.2063C21.6542 17.7299 21.4676 16.9727 21.4676 15.8422V12.7988C21.4676 9.22709 18.5722 6.33167 15.0005 6.33167C11.4287 6.33167 8.53331 9.22709 8.53331 12.7988V15.8422C8.53331 16.9727 8.3467 17.7299 8.15824 18.2063C8.00051 18.6052 8.21656 19.0554 8.62291 19.1928C9.52854 19.4991 11.0577 19.9599 12.7179 20.2169H17.283C18.9432 19.9599 20.4724 19.4991 21.3779 19.1928C21.7844 19.0554 22.0004 18.6052 21.8427 18.2063Z" fill="url(#paint4_linear_7623_9720)"/>
<path d="M15.0003 24.2117C13.7397 24.2117 12.7178 23.1897 12.7178 21.9292V19.2662H17.2828V21.9292C17.2828 23.1897 16.2609 24.2117 15.0003 24.2117Z" fill="url(#paint5_linear_7623_9720)"/>
<path d="M12.7178 20.6885C13.4175 20.9953 14.1887 21.1683 15.0003 21.1683C15.812 21.1683 16.5831 20.9953 17.2828 20.6885V19.2662H12.7178L12.7178 20.6885Z" fill="url(#paint6_linear_7623_9720)"/>
<path d="M15.0002 20.4075C12.2688 20.4075 10.0547 18.1933 10.0547 15.462V9.75574H19.9457V15.4621C19.9457 18.1933 17.7315 20.4075 15.0002 20.4075Z" fill="url(#paint7_linear_7623_9720)"/>
<path d="M13.2773 11.33C13.3575 11.2663 13.4427 11.2529 13.5001 11.2529C13.5563 11.2529 13.6406 11.2657 13.7228 11.3271C14.7478 12.0921 16.8262 13.3737 19.9457 14.0578V9.75574H10.0547V15.4621C10.0547 18.1933 12.2689 20.4075 15.0002 20.4075C15.2596 20.4075 15.5123 20.3815 15.761 20.3431C13.3919 19.9762 11.5764 17.934 11.5764 15.4621V13.3177C11.5764 12.7958 11.8458 12.3145 12.2856 12.0335C12.626 11.8162 12.961 11.5815 13.2773 11.33Z" fill="url(#paint8_linear_7623_9720)"/>
<path d="M13.0983 13.94H12.3374C12.1272 13.94 11.957 13.7699 11.957 13.5596C11.957 13.3494 12.1272 13.1792 12.3374 13.1792H13.0983C13.3086 13.1792 13.4787 13.3494 13.4787 13.5596C13.4787 13.7699 13.3085 13.94 13.0983 13.94Z" fill="url(#paint9_linear_7623_9720)"/>
<path d="M17.6632 13.94H16.9024C16.6921 13.94 16.522 13.7699 16.522 13.5596C16.522 13.3494 16.6921 13.1792 16.9024 13.1792H17.6632C17.8735 13.1792 18.0436 13.3494 18.0436 13.5596C18.0436 13.7699 17.8735 13.94 17.6632 13.94Z" fill="url(#paint10_linear_7623_9720)"/>
<path d="M12.7178 15.4624C12.5075 15.4624 12.3374 15.2923 12.3374 15.082V14.7016C12.3374 14.4913 12.5076 14.3212 12.7178 14.3212C12.9281 14.3212 13.0982 14.4913 13.0982 14.7016V15.082C13.0982 15.2923 12.9281 15.4624 12.7178 15.4624Z" fill="url(#paint11_radial_7623_9720)"/>
<path d="M17.2828 15.4624C17.0725 15.4624 16.9023 15.2923 16.9023 15.082V14.7016C16.9023 14.4913 17.0725 14.3212 17.2828 14.3212C17.4931 14.3212 17.6632 14.4913 17.6632 14.7016V15.082C17.6632 15.2923 17.4931 15.4624 17.2828 15.4624Z" fill="url(#paint12_radial_7623_9720)"/>
<path d="M13.6902 16.7917C13.4576 16.7917 13.2879 17.0214 13.3642 17.2411C13.5798 17.8622 14.2308 18.3134 15.0002 18.3134C15.7697 18.3134 16.4206 17.8622 16.6362 17.2411C16.7125 17.0214 16.5428 16.7917 16.3103 16.7917H13.6902Z" fill="white"/>
<path d="M14.1781 10.717C15.2877 11.5452 17.7175 13.0239 21.4675 13.5597V12.9683C21.4675 9.34331 18.5011 6.26487 14.8768 6.33277C11.3621 6.3986 8.5332 9.26832 8.5332 12.7988V13.0415C9.34462 12.7357 11.3053 11.926 12.8039 10.7342C13.2038 10.4163 13.7687 10.4114 14.1781 10.717Z" fill="url(#paint13_linear_7623_9720)"/>
<path d="M18.9673 22.0277L17.2825 21.233L15 29.9181H16.9021L19.0062 25.3592C19.1171 25.1189 19.0952 24.8384 18.9484 24.6183L18.4238 23.8313L19.1685 22.8384C19.3732 22.5654 19.2759 22.1733 18.9673 22.0277Z" fill="url(#paint14_linear_7623_9720)"/>
<path d="M11.0327 22.0277L12.7175 21.233L15 29.9181H13.0979L10.9939 25.3592C10.883 25.1189 10.9049 24.8384 11.0516 24.6183L11.5763 23.8313L10.8316 22.8384C10.6268 22.5654 10.7241 22.1733 11.0327 22.0277Z" fill="url(#paint15_linear_7623_9720)"/>
<path d="M21.4597 12.5034C21.3052 8.96179 18.3436 6.26786 14.8768 6.33282C14.1634 6.34617 13.4808 6.48018 12.8418 6.70665C14.3419 8.65033 17.2047 11.5224 21.4597 12.5034Z" fill="url(#paint16_linear_7623_9720)"/>
</g>
</g>
<defs>
<radialGradient id="paint0_radial_7623_9720" cx="0" cy="0" r="1" gradientUnits="userSpaceOnUse" gradientTransform="translate(4.6875 4.6875) rotate(48.4166) scale(29.6628)">
<stop offset="0.535317" stop-color="#FFDCCC"/>
<stop offset="1" stop-color="#FFB391"/>
</radialGradient>
<linearGradient id="paint1_linear_7623_9720" x1="15.0002" y1="22.668" x2="15.0002" y2="29.9181" gradientUnits="userSpaceOnUse">
<stop stop-color="#EDEBED"/>
<stop offset="1" stop-color="#FFFDFF"/>
</linearGradient>
<linearGradient id="paint2_linear_7623_9720" x1="15" y1="23.9191" x2="15.0004" y2="29.9182" gradientUnits="userSpaceOnUse">
<stop stop-color="#8CD3FF"/>
<stop offset="1" stop-color="#CFECFF"/>
</linearGradient>
<linearGradient id="paint3_linear_7623_9720" x1="13.9131" y1="23.9835" x2="15.841" y2="24.6721" gradientUnits="userSpaceOnUse">
<stop stop-color="#73B6E6"/>
<stop offset="1" stop-color="#92CCF5"/>
</linearGradient>
<linearGradient id="paint4_linear_7623_9720" x1="15.0002" y1="9.06222" x2="15.0005" y2="20.2169" gradientUnits="userSpaceOnUse">
<stop stop-color="#171215"/>
<stop offset="1" stop-color="#64505A"/>
</linearGradient>
<linearGradient id="paint5_linear_7623_9720" x1="13.125" y1="20" x2="16.875" y2="23.75" gradientUnits="userSpaceOnUse">
<stop stop-color="#E3AA75"/>
<stop offset="1" stop-color="#FCBD82"/>
</linearGradient>
<linearGradient id="paint6_linear_7623_9720" x1="12.8125" y1="20.3125" x2="17.1875" y2="20.9375" gradientUnits="userSpaceOnUse">
<stop stop-color="#D29B6E"/>
<stop offset="1" stop-color="#D29B6E" stop-opacity="0"/>
</linearGradient>
<linearGradient id="paint7_linear_7623_9720" x1="9.99988" y1="11.25" x2="18.4374" y2="19.6875" gradientUnits="userSpaceOnUse">
<stop stop-color="#F5AE67"/>
<stop offset="1" stop-color="#F7C797"/>
</linearGradient>
<linearGradient id="paint8_linear_7623_9720" x1="10.9374" y1="11.25" x2="13.4374" y2="20" gradientUnits="userSpaceOnUse">
<stop stop-color="#DEA672"/>
<stop offset="1" stop-color="#E3AA75" stop-opacity="0"/>
</linearGradient>
<linearGradient id="paint9_linear_7623_9720" x1="12.5001" y1="13.1247" x2="12.7179" y2="13.94" gradientUnits="userSpaceOnUse">
<stop stop-color="#54454D"/>
<stop offset="1" stop-color="#54454D" stop-opacity="0.56"/>
</linearGradient>
<linearGradient id="paint10_linear_7623_9720" x1="17.065" y1="13.1247" x2="17.2828" y2="13.94" gradientUnits="userSpaceOnUse">
<stop stop-color="#54454D"/>
<stop offset="1" stop-color="#54454D" stop-opacity="0.56"/>
</linearGradient>
<radialGradient id="paint11_radial_7623_9720" cx="0" cy="0" r="1" gradientUnits="userSpaceOnUse" gradientTransform="translate(12.5663 14.6625) rotate(71.565) scale(0.962331 0.641554)">
<stop stop-color="#040404"/>
<stop offset="1" stop-color="#767676"/>
</radialGradient>
<radialGradient id="paint12_radial_7623_9720" cx="0" cy="0" r="1" gradientUnits="userSpaceOnUse" gradientTransform="translate(17.1313 14.6625) rotate(71.565) scale(0.96233 0.641553)">
<stop stop-color="#040404"/>
<stop offset="1" stop-color="#767676"/>
</radialGradient>
<linearGradient id="paint13_linear_7623_9720" x1="10.6251" y1="7.81223" x2="20.9376" y2="13.4372" gradientUnits="userSpaceOnUse">
<stop stop-color="#4A3D43"/>
<stop offset="1" stop-color="#6E5A64"/>
</linearGradient>
<linearGradient id="paint14_linear_7623_9720" x1="18.1247" y1="21.5625" x2="15.9372" y2="30" gradientUnits="userSpaceOnUse">
<stop stop-color="#D3D1D4"/>
<stop offset="1" stop-color="#ECEAED"/>
</linearGradient>
<linearGradient id="paint15_linear_7623_9720" x1="11.8747" y1="21.5625" x2="14.0622" y2="30" gradientUnits="userSpaceOnUse">
<stop stop-color="#D3D1D4"/>
<stop offset="1" stop-color="#ECEAED"/>
</linearGradient>
<linearGradient id="paint16_linear_7623_9720" x1="18.4375" y1="7.49973" x2="16.25" y2="10.6247" gradientUnits="userSpaceOnUse">
<stop stop-color="#84737B"/>
<stop offset="1" stop-color="#84737B" stop-opacity="0"/>
</linearGradient>
<clipPath id="clip0_7623_9720">
<rect width="30" height="30" fill="white"/>
</clipPath>
</defs>
</svg>
