<svg width="48" height="48" viewBox="0 0 48 48" fill="none" xmlns="http://www.w3.org/2000/svg">
<circle cx="23.9985" cy="24" r="24" fill="#A4FDCD"/>
<circle cx="23.9985" cy="24" r="24" fill="url(#paint0_radial_7668_4269)"/>
<mask id="mask0_7668_4269" style="mask-type:alpha" maskUnits="userSpaceOnUse" x="-1" y="0" width="49" height="48">
<circle cx="23.9985" cy="24" r="24" fill="#C4C4C4"/>
</mask>
<g mask="url(#mask0_7668_4269)">
<path d="M36.3067 37.8959L29.8912 36.009L25.0382 39.2443C24.4084 39.6642 23.5879 39.6642 22.958 39.2443L18.1051 36.009L11.6896 37.8959C10.0935 38.3653 8.99756 39.8301 8.99756 41.4936V46.1879C8.99756 47.2235 9.83708 48.063 10.8726 48.063H37.1235C38.1591 48.063 38.9986 47.2235 38.9986 46.1879V41.4936C38.9987 39.8301 37.9028 38.3653 36.3067 37.8959Z" fill="url(#paint1_linear_7668_4269)"/>
<path d="M30.8732 30.5625H17.1227C15.0515 30.5625 13.3726 32.2415 13.3726 34.3127C13.3726 38.4549 16.7305 41.8129 20.8728 41.8129H27.123C31.2653 41.8129 34.6232 38.4549 34.6232 34.3127C34.6234 32.2415 32.9443 30.5625 30.8732 30.5625Z" fill="url(#paint2_linear_7668_4269)"/>
<path d="M30.7071 32.4375C32.0676 32.4375 32.6018 34.202 31.4698 34.9567L25.0382 39.2444C24.4084 39.6643 23.5879 39.6643 22.9581 39.2444L16.5265 34.9567C15.3945 34.202 15.9287 32.4375 17.2892 32.4375H30.7071Z" fill="url(#paint3_linear_7668_4269)"/>
<path d="M18.105 36.0091L22.958 39.2444C23.5879 39.6643 24.4083 39.6643 25.0382 39.2444L29.8911 36.0091H29.8912L29.7193 35.9585C28.9213 35.7238 28.3733 34.9914 28.3733 34.1596V31.1875H19.6229V34.1596C19.6229 34.9914 19.0749 35.7238 18.2769 35.9585L18.105 36.0091Z" fill="url(#paint4_linear_7668_4269)"/>
<path d="M19.623 32.5823C20.9362 33.2837 22.4253 33.6876 23.9982 33.6876C25.5711 33.6876 27.0602 33.2837 28.3733 32.5823V31.1875H19.623V32.5823Z" fill="url(#paint5_linear_7668_4269)"/>
<path d="M32.4358 21.812H32.1233V14.3118L15.8727 15.5618V21.812H15.5601C14.6972 21.812 13.9976 22.5115 13.9976 23.3746C13.9976 24.2376 14.6971 24.9372 15.5601 24.9372H15.9042C16.2245 29.1316 19.7216 32.4374 23.998 32.4374C28.2745 32.4374 31.7716 29.1316 32.0918 24.9372H32.4359C33.2989 24.9372 33.9985 24.2376 33.9985 23.3746C33.9984 22.5116 33.2988 21.812 32.4358 21.812Z" fill="url(#paint6_linear_7668_4269)"/>
<path d="M29.6236 15.562V14.937L15.8731 15.562V21.8122H15.6497C14.8324 21.8122 14.0875 22.4002 14.0061 23.2135C13.9125 24.1488 14.6445 24.9373 15.5606 24.9373H15.9047C16.2248 29.1318 19.7219 32.4376 23.9984 32.4376C24.4259 32.4376 24.8428 32.396 25.2524 32.3323C21.358 31.7313 18.3732 28.375 18.3732 24.3124V19.3122C18.3732 17.9314 19.4925 16.8121 20.8733 16.8121H28.3735C29.0639 16.8121 29.6236 16.2524 29.6236 15.562Z" fill="url(#paint7_linear_7668_4269)"/>
<path d="M20.248 23.6872C19.9026 23.6872 19.623 23.4074 19.623 23.0622V22.4372C19.623 22.0921 19.9026 21.8123 20.248 21.8123C20.5935 21.8123 20.873 22.0921 20.873 22.4372V23.0622C20.8731 23.4074 20.5936 23.6872 20.248 23.6872Z" fill="url(#paint8_radial_7668_4269)"/>
<path d="M27.7485 23.6872C27.4031 23.6872 27.1235 23.4074 27.1235 23.0622V22.4372C27.1235 22.0921 27.4031 21.8123 27.7485 21.8123C28.094 21.8123 28.3735 22.0921 28.3735 22.4372V23.0622C28.3735 23.4074 28.094 23.6872 27.7485 23.6872Z" fill="url(#paint9_radial_7668_4269)"/>
<path d="M19.6225 21.1872C19.3277 21.1872 19.0652 20.9779 19.009 20.6773C18.9449 20.3383 19.1683 20.0117 19.5077 19.9479L20.7578 19.7135C21.1026 19.6488 21.4243 19.8737 21.4872 20.2128C21.5513 20.5518 21.3279 20.8784 20.9885 20.9422L19.7384 21.1766C19.6993 21.1839 19.6603 21.1872 19.6225 21.1872Z" fill="url(#paint10_linear_7668_4269)"/>
<path d="M28.3742 21.1872C28.3363 21.1872 28.2973 21.1838 28.2582 21.1765L27.0082 20.9421C26.6688 20.8783 26.4454 20.5517 26.5095 20.2127C26.5729 19.8737 26.8952 19.649 27.2389 19.7134L28.4889 19.9478C28.8283 20.0116 29.0517 20.3382 28.9876 20.6772C28.9315 20.9778 28.6691 21.1872 28.3742 21.1872Z" fill="url(#paint11_linear_7668_4269)"/>
<path d="M21.4982 9.93677C18.3915 9.93677 15.873 12.4553 15.873 15.562H28.9985C31.8675 15.562 34.2348 13.4142 34.5803 10.6388C34.6266 10.2664 34.3306 9.93677 33.9554 9.93677C33.9554 9.93677 21.4982 9.93677 21.4982 9.93677Z" fill="url(#paint12_linear_7668_4269)"/>
<path d="M33.9555 9.93677H22.9664C22.087 10.6475 21.4255 11.617 21.0993 12.7299C20.8671 13.5216 21.4826 14.3119 22.3077 14.3119H32.5258C33.6325 13.4186 34.3971 12.1186 34.5809 10.6354C34.6267 10.2643 34.3295 9.93677 33.9555 9.93677Z" fill="url(#paint13_linear_7668_4269)"/>
<path d="M21.4981 48.0632H20.248V40.563C20.248 40.2178 20.5279 39.938 20.873 39.938C21.2183 39.938 21.498 40.2178 21.498 40.563L21.4981 48.0632Z" fill="url(#paint14_linear_7668_4269)"/>
<path d="M27.7481 48.0632H26.498V40.563C26.498 40.2178 26.7779 39.938 27.123 39.938C27.4683 39.938 27.748 40.2178 27.748 40.563L27.7481 48.0632Z" fill="url(#paint15_linear_7668_4269)"/>
<path d="M23.9982 28.0624C23.0606 28.0624 22.1951 27.7615 21.6842 27.2574C21.4383 27.0151 21.4358 26.6192 21.6781 26.3736C21.9204 26.1279 22.3172 26.1251 22.5619 26.3675C22.7701 26.5728 23.2712 26.8124 23.9982 26.8124C24.7251 26.8124 25.2262 26.5728 25.4344 26.3675C25.6791 26.1251 26.0759 26.1279 26.3182 26.3736C26.5605 26.6192 26.5581 27.0151 26.3121 27.2574C25.8013 27.7615 24.9357 28.0624 23.9982 28.0624Z" fill="#A06E50"/>
</g>
<defs>
<radialGradient id="paint0_radial_7668_4269" cx="0" cy="0" r="1" gradientUnits="userSpaceOnUse" gradientTransform="translate(7.83853 7.52) rotate(51.2813) scale(48.6013)">
<stop offset="0.360011" stop-color="#A4FDCD"/>
<stop offset="1" stop-color="#A6E4FF"/>
</radialGradient>
<linearGradient id="paint1_linear_7668_4269" x1="10.9985" y1="38.5" x2="39.4985" y2="45" gradientUnits="userSpaceOnUse">
<stop stop-color="#C4EB99"/>
<stop offset="1" stop-color="#D1FAA3"/>
</linearGradient>
<linearGradient id="paint2_linear_7668_4269" x1="14.4984" y1="32" x2="33.9984" y2="40" gradientUnits="userSpaceOnUse">
<stop stop-color="#ACE694"/>
<stop offset="1" stop-color="#B4F09B"/>
</linearGradient>
<linearGradient id="paint3_linear_7668_4269" x1="16.9985" y1="33" x2="31.4985" y2="36.5" gradientUnits="userSpaceOnUse">
<stop stop-color="#5DCC94"/>
<stop offset="1" stop-color="#69E8A9"/>
</linearGradient>
<linearGradient id="paint4_linear_7668_4269" x1="19.9984" y1="32" x2="28.4984" y2="39.5" gradientUnits="userSpaceOnUse">
<stop stop-color="#C98D69"/>
<stop offset="1" stop-color="#D49774"/>
</linearGradient>
<linearGradient id="paint5_linear_7668_4269" x1="19.9985" y1="32" x2="28.4985" y2="34" gradientUnits="userSpaceOnUse">
<stop stop-color="#A06E50"/>
<stop offset="1" stop-color="#A06E50" stop-opacity="0"/>
</linearGradient>
<linearGradient id="paint6_linear_7668_4269" x1="15.9983" y1="15.5" x2="30.4983" y2="31" gradientUnits="userSpaceOnUse">
<stop offset="0.307876" stop-color="#CD916E"/>
<stop offset="1" stop-color="#EBB798"/>
</linearGradient>
<linearGradient id="paint7_linear_7668_4269" x1="15.4987" y1="14.5" x2="21.8108" y2="32.4376" gradientUnits="userSpaceOnUse">
<stop stop-color="#B67F5F"/>
<stop offset="1" stop-color="#B67F5F" stop-opacity="0"/>
</linearGradient>
<radialGradient id="paint8_radial_7668_4269" cx="0" cy="0" r="1" gradientUnits="userSpaceOnUse" gradientTransform="translate(19.9991 22.373) rotate(71.565) scale(1.58101 1.05401)">
<stop stop-color="#040404"/>
<stop offset="1" stop-color="#767676"/>
</radialGradient>
<radialGradient id="paint9_radial_7668_4269" cx="0" cy="0" r="1" gradientUnits="userSpaceOnUse" gradientTransform="translate(27.4996 22.373) rotate(71.565) scale(1.58101 1.05401)">
<stop stop-color="#040404"/>
<stop offset="1" stop-color="#767676"/>
</radialGradient>
<linearGradient id="paint10_linear_7668_4269" x1="20.2481" y1="19.7024" x2="20.2481" y2="21.1872" gradientUnits="userSpaceOnUse">
<stop stop-color="#4C3D45"/>
<stop offset="1" stop-color="#6B5560" stop-opacity="0.76"/>
</linearGradient>
<linearGradient id="paint11_linear_7668_4269" x1="27.7486" y1="19.7024" x2="27.7486" y2="21.1872" gradientUnits="userSpaceOnUse">
<stop stop-color="#4C3D45"/>
<stop offset="1" stop-color="#6B5560" stop-opacity="0.76"/>
</linearGradient>
<linearGradient id="paint12_linear_7668_4269" x1="16.3229" y1="13.7864" x2="33.7388" y2="7.80441" gradientUnits="userSpaceOnUse">
<stop stop-color="#4D3D45"/>
<stop offset="1" stop-color="#78606C"/>
</linearGradient>
<linearGradient id="paint13_linear_7668_4269" x1="21.2265" y1="13.4012" x2="33.6093" y2="8.58907" gradientUnits="userSpaceOnUse">
<stop stop-color="#8A6F7D"/>
<stop offset="1" stop-color="#6E5A64" stop-opacity="0"/>
</linearGradient>
<linearGradient id="paint14_linear_7668_4269" x1="20.4986" y1="43.5" x2="21.4986" y2="43.5" gradientUnits="userSpaceOnUse">
<stop stop-color="#FFD164"/>
<stop offset="1" stop-color="#FFBE64"/>
</linearGradient>
<linearGradient id="paint15_linear_7668_4269" x1="26.7486" y1="43.5" x2="27.7486" y2="43.5" gradientUnits="userSpaceOnUse">
<stop stop-color="#FFD164"/>
<stop offset="1" stop-color="#FFBE64"/>
</linearGradient>
</defs>
</svg>
