<svg width="20" height="20" viewBox="0 0 20 20" fill="none" xmlns="http://www.w3.org/2000/svg">
<rect width="20" height="20" rx="10" fill="#FF6640"/>
<path d="M8.16515 14C7.93048 14 7.75815 13.9487 7.64815 13.846C7.54548 13.736 7.49415 13.5783 7.49415 13.373C7.49415 13.2483 7.52715 13.1273 7.59315 13.01C7.65915 12.8927 7.75448 12.768 7.87915 12.636L10.0901 10.282C10.4275 9.93 10.6695 9.611 10.8161 9.325C10.9628 9.03167 11.0361 8.73833 11.0361 8.445C11.0361 8.07833 10.9188 7.79967 10.6841 7.609C10.4568 7.41833 10.1231 7.323 9.68315 7.323C9.43382 7.323 9.18448 7.35967 8.93515 7.433C8.68582 7.499 8.43282 7.61633 8.17615 7.785C8.04415 7.873 7.91948 7.90967 7.80215 7.895C7.69215 7.88033 7.59315 7.83267 7.50515 7.752C7.42448 7.67133 7.36948 7.57233 7.34015 7.455C7.31082 7.33767 7.31448 7.22033 7.35115 7.103C7.39515 6.97833 7.48315 6.872 7.61515 6.784C7.93048 6.57133 8.28248 6.41 8.67115 6.3C9.06715 6.19 9.46315 6.135 9.85915 6.135C10.4165 6.135 10.8858 6.21933 11.2671 6.388C11.6485 6.55667 11.9381 6.80233 12.1361 7.125C12.3341 7.44767 12.4331 7.84 12.4331 8.302C12.4331 8.61 12.3818 8.91067 12.2791 9.204C12.1838 9.49733 12.0335 9.79433 11.8281 10.095C11.6301 10.3957 11.3698 10.7147 11.0471 11.052L8.97915 13.208V12.834H12.2131C12.4111 12.834 12.5615 12.8817 12.6641 12.977C12.7668 13.0723 12.8181 13.2153 12.8181 13.406C12.8181 13.5967 12.7668 13.7433 12.6641 13.846C12.5615 13.9487 12.4111 14 12.2131 14H8.16515Z" fill="white"/>
</svg>
