<svg width="22" height="22" viewBox="0 0 22 22" fill="none" xmlns="http://www.w3.org/2000/svg">
<path fill-rule="evenodd" clip-rule="evenodd" d="M18.3942 12.3904C18.709 12.5576 18.9518 12.8216 19.1227 13.0856C19.4554 13.6312 19.4284 14.3 19.1047 14.8895L18.4751 15.9455C18.1424 16.5087 17.5219 16.8607 16.8833 16.8607C16.5686 16.8607 16.2178 16.7728 15.9301 16.5968C15.6962 16.4472 15.4264 16.3943 15.1387 16.3943C14.2483 16.3943 13.5019 17.1248 13.4749 17.996C13.4749 19.008 12.6475 19.8 11.6133 19.8H10.3902C9.34702 19.8 8.51964 19.008 8.51964 17.996C8.50165 17.1248 7.75522 16.3943 6.86489 16.3943C6.56811 16.3943 6.29831 16.4472 6.07348 16.5968C5.7857 16.7728 5.42597 16.8607 5.1202 16.8607C4.47269 16.8607 3.85216 16.5087 3.51941 15.9455L2.89887 14.8895C2.56612 14.3176 2.54814 13.6312 2.88089 13.0856C3.02478 12.8216 3.29458 12.5576 3.60035 12.3904C3.85216 12.2672 4.01403 12.0648 4.16692 11.8272C4.61658 11.0704 4.34678 10.076 3.58236 9.62715C2.69203 9.12555 2.40425 8.00795 2.91686 7.13675L3.51941 6.09835C4.04101 5.22715 5.15617 4.91915 6.0555 5.42955C6.83791 5.85195 7.85414 5.57035 8.3128 4.82235C8.45669 4.57595 8.53763 4.31195 8.51964 4.04795C8.50165 3.70475 8.60058 3.37915 8.77145 3.11515C9.1042 2.56955 9.70675 2.21755 10.3633 2.19995H11.6313C12.2968 2.19995 12.8993 2.56955 13.2321 3.11515C13.394 3.37915 13.5019 3.70475 13.4749 4.04795C13.4569 4.31195 13.5379 4.57595 13.6818 4.82235C14.1404 5.57035 15.1566 5.85195 15.948 5.42955C16.8384 4.91915 17.9625 5.22715 18.4751 6.09835L19.0777 7.13675C19.5993 8.00795 19.3115 9.12555 18.4122 9.62715C17.6478 10.076 17.378 11.0704 17.8366 11.8272C17.9805 12.0648 18.1424 12.2672 18.3942 12.3904Z" fill="white"/>
<path d="M11.0106 13.4904C9.59868 13.4904 8.45654 12.3904 8.45654 11.0088C8.45654 9.62723 9.59868 8.51843 11.0106 8.51843C12.4226 8.51843 13.5377 9.62723 13.5377 11.0088C13.5377 12.3904 12.4226 13.4904 11.0106 13.4904Z" fill="#1A1926"/>
<path opacity="0.25" d="M19.1227 13.0856C18.9518 12.8216 18.709 12.5576 18.3942 12.3904C18.1424 12.2672 17.9805 12.0648 17.8366 11.8272C17.378 11.0704 17.6478 10.076 18.4122 9.62715C19.3115 9.12555 19.5993 8.00795 19.0777 7.13675L18.4751 6.09835C17.9625 5.22715 16.8384 4.91915 15.948 5.42955C15.1566 5.85195 14.1404 5.57035 13.6818 4.82235C13.5379 4.57595 13.4569 4.31195 13.4749 4.04795C13.5019 3.70475 13.394 3.37915 13.2321 3.11515C12.8993 2.56955 12.2968 2.19995 11.6313 2.19995H10.3633C9.70675 2.21755 9.1042 2.56955 8.77145 3.11515C8.60058 3.37915 8.50165 3.70475 8.51964 4.04795C8.53763 4.31195 8.45669 4.57595 8.3128 4.82235C7.85414 5.57035 6.83791 5.85195 6.0555 5.42955C5.15617 4.91915 4.04101 5.22715 3.51941 6.09835L2.91686 7.13675C2.40425 8.00795 2.69203 9.12555 3.58236 9.62715C4.34678 10.076 4.61658 11.0704 4.16692 11.8272C4.01403 12.0648 3.85216 12.2672 3.60035 12.3904C3.29458 12.5576 3.02478 12.8216 2.88089 13.0856C2.54814 13.6312 2.56612 14.3176 2.89887 14.8896L3.51941 15.9456C3.85216 16.5088 4.47269 16.8607 5.1202 16.8607C5.42597 16.8607 5.7857 16.7728 6.07348 16.5968C6.29831 16.4472 6.56811 16.3943 6.86489 16.3943C7.75522 16.3943 8.50165 17.1248 8.51964 17.996C8.51964 19.008 9.34702 19.7999 10.3902 19.7999H11.6133C12.6475 19.7999 13.4749 19.008 13.4749 17.996C13.5019 17.1248 14.2483 16.3943 15.1387 16.3943C15.4264 16.3943 15.6962 16.4472 15.9301 16.5968C16.2178 16.7728 16.5686 16.8607 16.8833 16.8607C17.5219 16.8607 18.1424 16.5088 18.4751 15.9456L19.1047 14.8896C19.4284 14.3 19.4554 13.6312 19.1227 13.0856Z" fill="#1A1926"/>
</svg>
